<svg xmlns="http://www.w3.org/2000/svg" viewBox="0 0 1600 1600" xml:space="preserve"><path fill="#fbfbfb" d="M245.581 653.574c-11.902 13.233-10.723 28.354 3.95 37.595 7.853 4.946 17.193 7.658 26.052 10.852 15.61 5.626 31.69 10.078 46.961 16.479 12.79 5.36 23.431 14.187 28.368 27.97 9.159 25.567-2.3 50.017-28.21 60.418-18.634 7.48-38.049 8.9-57.882 7.42-16.21-1.209-32.161-3.356-46.53-11.62-10.222-5.879-16.293-14.508-16.157-26.777.116-10.474 6.177-18.564 16.175-21.508 14.934-4.399 31.579 1.013 37.904 11.616-3.207 4.344-7.23 7.955-8.914 12.444-3.896 10.385-.554 18.41 9.158 25.444 14.965 10.839 41.187 8.501 54-4.815 12.766-13.267 9.97-30.963-7.301-39.533-10.178-5.05-21.37-8.175-32.286-11.591-15.25-4.773-30.488-9.316-44.503-17.376-31.535-18.135-29.326-55.695-11.57-72.912 11.76-11.404 26.6-16.302 42.331-18.385 21.304-2.82 42.562-2.016 63.384 3.756 10.664 2.957 20.977 6.961 27.789 16.463 5.913 8.25 7.773 17.282 3.475 26.83-4.087 9.082-12.061 12.543-21.347 13.185-12.65.874-23.51-2.808-31.072-12.89 3.212-3.81 6.698-6.796 8.711-10.567 4.474-8.381 2.377-17.54-4.669-23.995-15.236-13.962-41.808-13.39-57.817 1.497M816 637.922c9.333.015 18.177-.252 26.996.105 17.657.713 33.037 6.786 43.645 21.5 21.372 29.647 4.85 72.231-30.927 79.895-6.124 1.312-12.548 1.567-18.843 1.662-15.136.23-30.276.074-45.865.074 0 9.774-.022 19.074.006 28.375.028 9.498-.108 19.003.23 28.49.255 7.18 3.06 10.28 9.835 12.622.993.344 1.696 1.526 2.532 2.32-1.1.628-2.2 1.798-3.304 1.804-20.665.106-41.33.102-61.996-.003-1.153-.006-2.301-1.086-3.451-1.666.934-.901 1.75-2.39 2.823-2.607 6.048-1.225 8.526-5.409 9.33-10.899.433-2.95.408-5.983.41-8.98.023-43.497.025-86.995-.007-130.493-.002-2.49-.237-4.993-.538-7.469-.673-5.536-3.526-9.103-9.179-10.431-1.289-.303-2.272-1.907-3.396-2.912l.845-1.387zm30.137 76.529c7.011-13.774 8.293-28.226 3.027-42.598-10.29-28.081-32.425-32.208-57.78-29.103v93.494c21.86 1.772 42.02.201 54.753-21.793M688.513 698.5c11.718 7.04 18.557 16.643 17.844 30.426-.505 9.76-5.716 16.97-13.863 21.81-5.4 3.206-11.418 5.353-17.019 8.247-3.373 1.743-6.838 3.605-9.63 6.116-7.04 6.33-4.775 15.804 4.249 18.675 11.147 3.547 20.88-.65 30.497-5.604 1.39-.716 3.084-.844 4.638-1.243-.242 1.774.014 3.827-.8 5.28-11.577 20.645-30.007 30.642-52.932 32.447-21.535 1.695-40.754-4.577-55.442-20.922-16.687-18.57-20.56-40.583-12.516-63.801 7.707-22.24 24.794-34.787 47.521-39.706 19.996-4.328 39.025-1.212 57.453 8.275m-36.848 55.91c3.1-6.036 5.881-12.266 9.39-18.055 3.758-6.202 7.015-12.426 7.484-19.821.523-8.253-1.001-15.867-8.34-20.669-7.474-4.89-15.266-3.62-22.633.697-25.003 14.654-29.327 54.709-8.236 75.758 9.179 9.16 20.394 13.438 33.347 14.099-10.663-8.083-14.588-18.344-11.012-32.009m504.102-62.548c35.708-11.774 70.057 8.198 80.815 39.745 11.242 32.965-7.38 69.977-40.87 80.236-31.372 9.61-64.388-5.34-77.126-34.925-13.063-30.338-1.382-64.5 27.717-80.82 2.889-1.621 6.055-2.746 9.464-4.236m40.756 96.062c7.128-22.503 7.458-45.275 1.24-67.875-2.105-7.652-6.06-15.147-10.649-21.674-5.472-7.781-14.639-7.631-20.86-.314-3.274 3.852-6.085 8.417-7.919 13.122-8.141 20.886-8.755 42.447-4.758 64.298 1.935 10.581 4.907 20.753 12.092 29.112 6.744 7.847 15.278 8.115 21.618.02 3.717-4.744 6.014-10.6 9.236-16.69"/><path fill="#fcfcfc" d="M1072.044 742c.002 17.658-.025 34.816.016 51.974.024 10.312 1.858 12.79 11.29 16.56 1.012.404 1.445 2.257 2.536 4.092h-65.292c1.667-1.979 2.448-3.833 3.683-4.214 6.059-1.868 8.862-4.782 9.626-11.192.314-2.636.28-5.321.28-7.984.016-43.478.035-86.957-.032-130.435-.006-3.46-.322-6.989-1.052-10.364-.954-4.409-3.809-7.202-8.407-8.195-1.144-.246-2.079-1.458-3.11-2.226 1.126-.865 2.14-2.246 3.393-2.512 10.874-2.315 21.832-4.247 32.676-6.689 4.656-1.048 9.101-3.033 14.393-4.85z"/><path fill="#fbfbfb" d="M491.837 696.89c.385-3.186-.492-4.598-3.47-4.3-1.813.183-3.71.288-5.475-.058-1.32-.258-2.488-1.292-3.724-1.98 1.093-.876 2.095-2.355 3.293-2.536 13.57-2.046 25.38-7.907 35.565-16.842 4.38-3.843 7.847-8.73 11.871-13.305v30.374c5.844 0 11.29-.129 16.72.1 1.2.05 2.348 1.363 3.52 2.094-1.179.728-2.332 2.032-3.54 2.085-5.316.23-10.646.1-16.413.1-.08 1.552-.22 2.981-.22 4.41-.012 26.144-.008 52.288-.006 78.433 0 .832 0 1.665.019 2.497.349 16.114 5.463 21.795 22.66 23.673-1.484 2.165-2.217 4.46-3.734 5.252-10.475 5.466-21.48 8.833-33.55 7.779-11.317-.989-19-6.498-21.374-17.572-1.655-7.717-1.988-15.818-2.064-23.756-.242-25.31-.087-50.622-.078-76.448m789.35 90.823c-.039-31.926-.039-63.384-.039-95.177h-12.507l-.991-1.117c.99-1.14 1.844-3.107 2.99-3.295 20.051-3.29 36.066-12.915 48.063-30.601v30.722c5.81 0 11.23-.123 16.635.09 1.287.05 2.53 1.223 3.795 1.88-1.279.8-2.525 2.225-3.84 2.291-5.267.266-10.555.11-16.107.11-.113 1.996-.265 3.451-.266 4.906-.013 25.998-.023 51.996.016 77.994.005 2.993.044 6.029.519 8.972 1.788 11.081 7.486 16.003 18.887 16.615.636.035 1.268.147 3.191.378-1.3 2.187-1.855 4.501-3.244 5.236-10.602 5.607-21.756 9.195-34 7.87-13.316-1.44-20.349-8.213-22.295-21.468-.242-1.648-.511-3.291-.807-5.406"/><path fill="#fafafa" d="M994.686 886.836c2.745-1.22 5.13-2.288 8.355-3.731-4.886-4.26-9.188-8.044-13.528-11.785-4.031-3.476-8.158-6.844-12.135-10.38-2.371-2.11-2.171-4.025 1.03-5.085 4.263-1.412 8.503-2.976 12.868-3.97 1.94-.441 4.322-.072 6.227.653 11.502 4.377 22.85 9.169 34.422 13.342 3.04 1.097 6.82 1.167 10.039.55 10.109-1.936 20.093-4.512 30.163-6.67 8.186-1.753 15.034.857 20.844 6.77 4.024 4.096 3.883 6.517-1.415 9.044-5.242 2.501-10.74 4.463-16.114 6.688-5.994 2.48-11.84 5.422-18 7.367-6.247 1.973-10.502 5.82-14.213 10.962-5.155 7.141-11.253 13.642-16.005 21.024-5.031 7.817-13.328 8.849-20.797 11.482-3.292 1.161-4.577-1.66-3.746-4.978a4444 4444 0 0 0 5.73-23.231c.18-.74.234-1.51.45-2.967-11.244 3.76-21.93 7.261-32.562 10.918-5.713 1.965-11.566 3.1-16.315 7.855-4.362 4.368-13.213.184-13.293-6.549-.088-7.41-3.415-12.547-7.99-17.41-2.921-3.105-1.956-4.443 1.584-5.945 4.349-1.845 8.098-1.725 11.372 1.779 6.518 6.976 13.413 8.256 22.056 3.254 6.423-3.717 13.71-5.943 20.973-8.987"/><path fill="#fbfbfb" d="M935.194 809.481c6.232-3.063 7.034-8.504 7.095-14.125.123-11.497.042-22.997.043-34.496.001-12.499.01-24.998-.01-37.496-.004-1.997-.052-4.002-.234-5.99-.765-8.349-3.601-11.432-12.025-12.94v-2.776l50.092-11.929v5.676c-.001 31.33-.018 62.66.019 93.99.004 3.492.026 7.028.557 10.463.861 5.577 3.82 9.391 9.772 10.572 1.22.242 2.132 2.034 3.186 3.112l-.906 1.1h-62.441c-2.414-5.143 2.384-3.882 4.852-5.16"/><path fill="#fcfcfc" d="M444.286 809.056c.512.232.694.274.804.387 1.652 1.68 6.4-.683 5.473 3.754-.199.948-4.113 1.56-6.322 1.578-17.313.133-34.628.132-51.94.011-1.674-.011-3.34-1.115-5.01-1.712 1.357-1.006 2.578-2.38 4.098-2.944 3.854-1.432 6.743-3.733 7.57-7.83.62-3.073.961-6.255.971-9.39.078-23.308.068-46.616.01-69.923-.006-2.982-.216-6.004-.737-8.935-.895-5.042-3.68-8.363-9.062-9.258-1.063-.176-1.918-1.609-2.87-2.462.815-.785 1.591-2.209 2.449-2.26 16.131-.96 31.39-5.518 46.448-10.97.435-.157.978-.02 1.863-.02v6.909c.011 32.797.003 65.594.054 98.39.009 5.569.35 11.106 6.201 14.675"/><path fill="#fafafa" d="M944.982 678.934c-5.595-12.1-1.276-23.556 10.129-27.663 10.164-3.66 21.477 2.268 24.364 12.768 2.463 8.958-1.695 18.379-9.81 22.228-8.812 4.18-18.238 1.483-24.683-7.333m-544.06-4.078c-2.449-9.5 1.232-18.24 9.144-22.338 8.243-4.27 17.754-2.436 23.428 4.517 5.802 7.11 6.015 16.92.521 23.932-5.374 6.86-15.247 9.13-23.465 5.217-4.7-2.237-7.847-5.985-9.628-11.328"/><path fill="#e6e6e6" d="M353 909.786h-34.088v-6.477h111.094v6.477z"/><path fill="#fefefe" d="M1207 909.929h26.872l.356 5.785h-111.47v-5.785z"/><path fill="#e8e8e8" d="M536.939 901.98c3.61-3.385 6.636-6.932 10.06-10.043 1.14-1.035 3.296-.95 4.988-1.377-.592 1.52-.854 3.31-1.84 4.507-2.695 3.275-5.694 6.3-8.374 9.207 5.776 5.368 11.224 10.17 16.296 15.34 1.132 1.154.948 3.597 1.37 5.447-1.616-.792-3.654-1.2-4.781-2.438-8.28-9.097-17.737-16.383-29.43-20.623-1.343-.487-2.201-2.315-3.285-3.521 1.667-.208 3.504-.965 4.966-.512 3.3 1.023 6.413 2.644 10.03 4.013"/><path fill="#e6e6e6" d="M904.808 925.212c2.564-.91 4.727-1.907 6.994-2.28 1.318-.215 2.801.573 4.21.909-.921 1.134-1.625 2.894-2.799 3.301-7.828 2.714-15.74 5.187-23.657 7.64-4.598 1.426-9.213 2.853-13.908 3.877-1.344.294-2.993-.817-4.503-1.285 1.084-1.022 2-2.58 3.277-2.98 9.97-3.128 20.011-6.033 30.386-9.182"/><path fill="#e8e8e8" d="M526.985 928.484c-2.696 7.755-3.692 15.183-1.557 22.916.343 1.244-.944 2.938-1.477 4.423-1.02-1.078-2.643-2-2.97-3.258-3.794-14.638.995-27.507 8.704-39.637.54-.851 2.411-.857 3.664-1.256.054 1.351.58 2.919.078 4.016-1.93 4.22-4.188 8.29-6.442 12.796m122.443-33.174c-11.577-3.643-22.815-7.074-33.987-10.707-1.433-.465-2.524-1.98-3.773-3.008 1.704-.502 3.648-1.806 5.074-1.379 12.042 3.607 24.02 7.44 35.927 11.473 1.464.496 2.395 2.56 3.573 3.897-1.689.14-3.376.323-5.068.387-.455.017-.924-.333-1.746-.664m120.379 49.246c3.555.498 6.712.77 9.794 1.409.829.171 1.428 1.456 2.132 2.23-.794.72-1.49 1.646-2.417 2.091-.655.316-1.646.09-2.448-.079-12.488-2.639-24.991-5.217-37.424-8.1-1.352-.313-2.287-2.423-3.416-3.7 1.593-.194 3.283-.831 4.765-.51 9.554 2.074 19.063 4.357 29.014 6.66"/><path fill="#e6e6e6" d="M504.107 898.653c-9.438.3-17.812 2.608-25.572 7.28-.978.589-2.8-.225-4.231-.388.585-1.2.846-2.914 1.806-3.52 10.196-6.43 21.434-8.858 33.384-7.979.942.07 1.788 1.442 2.678 2.21-1.041.78-1.98 1.913-3.15 2.251-1.387.401-2.971.119-4.915.146m187.826 17.099c1.801-.159 3.715-.537 5.055.171a977 977 0 0 1 27.505 15.13c1.157.66 1.706 2.386 2.536 3.618-1.429.191-3.19 1.019-4.236.474-9.877-5.14-19.659-10.465-29.378-15.9-.87-.486-1.105-2.112-1.482-3.493m152.48 30.346c-6.157.958-11.878 1.987-17.642 2.645-1.27.145-2.691-1.026-4.043-1.59 1.156-1.047 2.18-2.777 3.49-3.032a844 844 0 0 1 30.373-5.326c1.662-.261 3.502.62 5.26.972-1.463 1.168-2.758 2.887-4.422 3.395-4.109 1.253-8.387 1.952-13.016 2.936"/><path fill="#e8e8e8" d="M584.366 882.052c-5.815.928-11.159 1.992-16.55 2.676-1.632.207-3.398-.642-5.102-1.008 1.1-1.152 1.999-2.938 3.328-3.356 10.925-3.433 22.139-3.855 33.43-2.43.942.12 1.725 1.508 2.582 2.306-.938.704-1.863 1.991-2.816 2.013-4.802.111-9.612-.108-14.872-.201m-51.501 87.99c-1.306-1.066-2.565-1.779-3.211-2.858-.477-.796-.154-2.07-.188-3.132 1.072-.034 2.335-.45 3.179-.028 2.34 1.169 4.388 2.95 6.763 4.019 7.377 3.32 14.106 2.351 20.175-3.269 1.052-.974 3.02-.961 4.564-1.404-.498 1.687-.486 3.885-1.579 4.976-6.408 6.394-14.312 7.029-22.61 4.925-2.365-.6-4.528-2-7.093-3.23"/><path fill="#e6e6e6" d="M681.259 907.358c.106 3.054-1.553 3.48-3.505 2.473a228 228 0 0 1-13.827-7.73c-.836-.508-1.015-2.097-1.497-3.187 1.316-.237 2.973-1.104 3.892-.608 5.047 2.728 9.913 5.79 14.937 9.052m-117.705 29.476c-.54-1.275-1.213-2.206-1.178-3.11.038-.973.516-2.422 1.217-2.735.672-.3 2.563.388 2.738.986 1.598 5.464 3.043 10.981 4.23 16.547.161.76-1.35 1.875-2.086 2.825-.82-1.028-2.065-1.94-2.379-3.104-.977-3.633-1.603-7.362-2.542-11.409m235.8 14.008c-2.94.018-5.463.235-7.927-.054-.98-.115-1.828-1.348-2.736-2.072.736-.748 1.438-2.1 2.215-2.145a263 263 0 0 1 16.978-.421c.74.005 1.468 1.398 2.202 2.148-.766.743-1.458 2.008-2.312 2.13-2.626.372-5.314.306-8.42.414m125.866-27.796c-.854-1.296-1.384-2.613-1.914-3.93 3.27-1.158 6.512-2.415 9.838-3.378.571-.165 2.132.922 2.135 1.436.004.934-.588 2.373-1.338 2.717-2.707 1.244-5.583 2.12-8.72 3.155m-464.006-7.659c1.47-.52 2.756-.753 4.043-.986-.006 1.193.376 2.575-.095 3.54a32.7 32.7 0 0 1-3.99 6.276c-.643.79-2.107.912-3.198 1.338-.276-1.173-1.102-2.582-.72-3.472.97-2.26 2.482-4.287 3.96-6.696"/></svg>